<svg width="60" height="60" viewBox="0 0 60 60" fill="none" xmlns="http://www.w3.org/2000/svg">
<path fill-rule="evenodd" clip-rule="evenodd" d="M10.1544 19.1736C13.7199 10.612 22.074 5.0254 31.3484 5.00063C41.3438 4.94799 50.2316 11.3504 53.3474 20.848C56.4632 30.3456 53.0952 40.7687 45.011 46.6473C36.9268 52.526 25.9731 52.5172 17.8983 46.6256L10.6984 53.8256C9.96631 54.5568 8.78039 54.5568 8.04835 53.8256C7.31722 53.0936 7.31722 51.9077 8.04835 51.1756L15.0234 44.2006C8.50811 37.6002 6.58889 27.7352 10.1544 19.1736ZM13.4973 35.4229C16.491 42.6371 23.5377 47.3357 31.3484 47.3256V47.2256C41.9491 47.2121 50.5547 38.6511 50.6234 28.0506C50.6335 20.2399 45.9349 13.1932 38.7207 10.1995C31.5065 7.20581 23.1992 8.85544 17.6762 14.3784C12.1532 19.9014 10.5036 28.2087 13.4973 35.4229Z" fill="#EDEDED"/>
</svg>
